<?xml version="1.0" encoding="utf-8"?>
<!-- Svg Vector Icons : http://www.onlinewebfonts.com/icon -->
<!DOCTYPE svg PUBLIC "-//W3C//DTD SVG 1.1//EN" "http://www.w3.org/Graphics/SVG/1.1/DTD/svg11.dtd">
<svg version="1.1" xmlns="http://www.w3.org/2000/svg" xmlns:xlink="http://www.w3.org/1999/xlink" x="0px" y="0px" viewBox="0 0 1000 1000" enable-background="new 0 0 1000 1000" xml:space="preserve">
<metadata> Svg Vector Icons : http://www.onlinewebfonts.com/icon </metadata>
<g><path d="M605.7,778.6c-19.2,0-38.4-19.2-38.4-38.4V355.9c0-19.2,19.2-38.4,38.4-38.4s38.4,19.2,38.4,38.4v384.3C624.9,759.4,624.9,778.6,605.7,778.6L605.7,778.6z M394.3,778.6c-19.2,0-38.4-19.2-38.4-38.4V355.9c0-19.2,19.2-38.4,38.4-38.4c19.2,0,38.4,19.2,38.4,38.4v384.3C432.7,759.4,413.5,778.6,394.3,778.6L394.3,778.6z M951.6,182.9H778.6v-76.9C778.6,48.4,721,10,663.3,10H317.5c-57.6,0-96.1,38.4-96.1,96.1v76.9H48.4c-19.2,0-38.4,19.2-38.4,38.4s19.2,38.4,38.4,38.4h903.1c19.2,0,38.4-19.2,38.4-38.4S970.8,182.9,951.6,182.9L951.6,182.9z M279,106.1c0-19.2,19.2-38.4,38.4-38.4h345.9c19.2,0,38.4,19.2,38.4,38.4v76.9H279V106.1L279,106.1z M740.2,990H259.8c-57.6,0-115.3-57.6-115.3-115.3V355.9c0-19.2,19.2-38.4,38.4-38.4c19.2,0,38.4,19.2,38.4,38.4v518.8c0,19.2,19.2,38.4,38.4,38.4h480.4c19.2,0,38.4-19.2,38.4-38.4V355.9c0-19.2,19.2-38.4,38.4-38.4c19.2,0,38.4,19.2,38.4,38.4v518.8C836.3,932.4,797.8,990,740.2,990L740.2,990z"/></g>
</svg>